# xmcd CD database file
#
# Track frame offsets:
#	150
#	29377
#	76233
#	110322
#	142872
#	161066
#	195141
#	220066
#	242508
#
# Disc length: 3558 seconds
#
# Revision: 0
# Processed by: cddbd v1.5.2PL0 Copyright (c) Steve Scherf et al.
# Submitted via: CDex 1.51
#
DISCID=650de409
DTITLE=Brahma Kumaris - Vision of Shiva
DYEAR=1998
DGENRE=New Age
TTITLE0=Kindle your light and finish the darkness
TTITLE1=Let us fly away
TTITLE2=The angels of the confluence age are going to celebrate a meeting with Shiva
TTITLE3=Our life is filled with happiness
TTITLE4=The praise of Bharat is great
TTITLE5=Shiva is revealed once again in the world cycle
TTITLE6=We are to go to our Supreme region
TTITLE7=Shiv Baba since we have been lost in Your remembrance
TTITLE8=Let me be lost in Your remembrance
EXTD=YEAR: 1998
EXTT0=
EXTT1=
EXTT2=
EXTT3=
EXTT4=
EXTT5=
EXTT6=
EXTT7=
EXTT8=
PLAYORDER=
